<svg width="2038" height="778" viewBox="0 0 2038 778" fill="none" xmlns="http://www.w3.org/2000/svg">
<path d="M276.003 375.191H133.085L181.02 255.405H324.826L276.003 375.191Z" fill="url(#paint0_linear)"/>
<path d="M335.478 228.786H191.672L199.662 209.265C224.517 147.154 283.992 109 356.783 109H383.414L335.478 228.786Z" fill="url(#paint1_linear)"/>
<path d="M512.129 228.786H369.211L417.146 109H560.065L512.129 228.786Z" fill="url(#paint2_linear)"/>
<path d="M630.192 375.191H486.386L534.321 255.405H678.128L630.192 375.191Z" fill="url(#paint3_linear)"/>
<path d="M217.415 521.595H213.865C152.614 521.595 101.128 454.16 121.545 401.81H265.351L217.415 521.595Z" fill="url(#paint4_linear)"/>
<path d="M394.954 521.595H251.148L299.083 401.81H442.889L394.954 521.595Z" fill="url(#paint5_linear)"/>
<path d="M431.349 521.595H427.799L475.734 401.81H619.54C589.359 476.343 518.343 521.595 431.349 521.595Z" fill="url(#paint6_linear)"/>
<path d="M689.668 228.786H545.861L593.797 109H597.348C658.598 109 710.085 176.435 689.668 228.786Z" fill="url(#paint7_linear)"/>
<path d="M479.285 668H369.211L417.146 548.214H454.429C501.477 548.214 540.535 599.678 524.557 638.719C516.568 656.465 499.702 668 479.285 668Z" fill="url(#paint8_linear)"/>
<path d="M335.478 668H331.928C270.677 668 219.191 600.565 239.608 548.214H383.414L335.478 668Z" fill="url(#paint9_linear)"/>
<path d="M1092.41 397.627C1092.41 423.604 1087.43 445.479 1077.47 463.252C1067.6 481.025 1053.2 493.525 1034.25 500.752L1085.52 555.977H1038.36L997.926 507.93H992.213C959.889 507.93 935.035 498.359 917.652 479.219C900.367 459.98 891.725 432.686 891.725 397.334C891.725 361.982 900.416 334.834 917.799 315.889C935.279 296.943 960.182 287.471 992.506 287.471C1024.34 287.471 1048.95 297.09 1066.33 316.328C1083.72 335.566 1092.41 362.666 1092.41 397.627ZM928.932 397.627C928.932 423.994 934.254 444.014 944.898 457.686C955.543 471.26 971.314 478.047 992.213 478.047C1013.01 478.047 1028.69 471.309 1039.23 457.832C1049.88 444.355 1055.2 424.287 1055.2 397.627C1055.2 371.357 1049.93 351.436 1039.38 337.861C1028.93 324.287 1013.31 317.5 992.506 317.5C971.51 317.5 955.641 324.287 944.898 337.861C934.254 351.436 928.932 371.357 928.932 397.627ZM1264 505L1259.17 483.76H1257.41C1252.62 491.279 1245.79 497.188 1236.9 501.484C1228.11 505.781 1218.05 507.93 1206.72 507.93C1187.1 507.93 1172.45 503.047 1162.78 493.281C1153.11 483.516 1148.28 468.721 1148.28 448.896V342.988H1182.99V442.891C1182.99 455.293 1185.53 464.619 1190.61 470.869C1195.69 477.021 1203.65 480.098 1214.49 480.098C1228.94 480.098 1239.54 475.801 1246.28 467.207C1253.11 458.516 1256.53 444.014 1256.53 423.701V342.988H1291.1V505H1264ZM1425.92 507.93C1400.73 507.93 1381 500.605 1366.74 485.957C1352.58 471.211 1345.5 450.947 1345.5 425.166C1345.5 398.701 1352.1 377.9 1365.28 362.764C1378.46 347.627 1396.58 340.059 1419.62 340.059C1441.01 340.059 1457.91 346.553 1470.31 359.541C1482.71 372.529 1488.91 390.4 1488.91 413.154V431.758H1380.95C1381.44 447.48 1385.69 459.59 1393.7 468.086C1401.71 476.484 1412.98 480.684 1427.54 480.684C1437.11 480.684 1445.99 479.805 1454.2 478.047C1462.5 476.191 1471.38 473.164 1480.86 468.965V496.943C1472.46 500.947 1463.96 503.779 1455.37 505.439C1446.77 507.1 1436.96 507.93 1425.92 507.93ZM1419.62 366.133C1408.69 366.133 1399.9 369.6 1393.26 376.533C1386.71 383.467 1382.81 393.574 1381.54 406.855H1455.07C1454.88 393.477 1451.66 383.369 1445.41 376.533C1439.16 369.6 1430.56 366.133 1419.62 366.133ZM1625.2 340.059C1632.13 340.059 1637.85 340.547 1642.34 341.523L1638.97 373.604C1634.09 372.432 1629.01 371.846 1623.74 371.846C1609.97 371.846 1598.79 376.338 1590.19 385.322C1581.7 394.307 1577.45 405.977 1577.45 420.332V505H1543.02V342.988H1569.98L1574.52 371.553H1576.28C1581.65 361.885 1588.63 354.219 1597.22 348.555C1605.91 342.891 1615.24 340.059 1625.2 340.059ZM1721.94 505H1687.52V277.07H1721.94V505ZM1761.7 342.988H1799.2L1832.15 434.834C1837.13 447.92 1840.46 460.225 1842.12 471.748H1843.29C1844.17 466.377 1845.78 459.883 1848.12 452.266C1850.46 444.551 1862.87 408.125 1885.33 342.988H1922.54L1853.25 526.533C1840.65 560.225 1819.65 577.07 1790.26 577.07C1782.64 577.07 1775.22 576.24 1767.99 574.58V547.334C1773.17 548.506 1779.08 549.092 1785.72 549.092C1802.32 549.092 1813.99 539.473 1820.73 520.234L1826.73 505L1761.7 342.988Z" fill="#293343"/>
<defs>
<linearGradient id="paint0_linear" x1="718.389" y1="674.57" x2="229.28" y2="352.826" gradientUnits="userSpaceOnUse">
<stop offset="0.0301753" stop-color="#EC2227"/>
<stop offset="1" stop-color="#9D1F60"/>
</linearGradient>
<linearGradient id="paint1_linear" x1="140.775" y1="33.0328" x2="804.079" y2="655.614" gradientUnits="userSpaceOnUse">
<stop offset="0.0301753" stop-color="#EC2227"/>
<stop offset="1" stop-color="#9D1F60"/>
</linearGradient>
<linearGradient id="paint2_linear" x1="860.797" y1="459.425" x2="371.448" y2="137.521" gradientUnits="userSpaceOnUse">
<stop offset="0.0301753" stop-color="#EC2227"/>
<stop offset="1" stop-color="#9D1F60"/>
</linearGradient>
<linearGradient id="paint3_linear" x1="834.32" y1="499.88" x2="344.888" y2="177.923" gradientUnits="userSpaceOnUse">
<stop offset="0.0301753" stop-color="#EC2227"/>
<stop offset="1" stop-color="#9D1F60"/>
</linearGradient>
<linearGradient id="paint4_linear" x1="-37.1093" y1="222.149" x2="626.327" y2="844.855" gradientUnits="userSpaceOnUse">
<stop offset="0.0301753" stop-color="#EC2227"/>
<stop offset="1" stop-color="#9D1F60"/>
</linearGradient>
<linearGradient id="paint5_linear" x1="692.281" y1="715.121" x2="202.895" y2="393.191" gradientUnits="userSpaceOnUse">
<stop offset="0.0301753" stop-color="#EC2227"/>
<stop offset="1" stop-color="#9D1F60"/>
</linearGradient>
<linearGradient id="paint6_linear" x1="103.465" y1="73.2693" x2="766.556" y2="695.652" gradientUnits="userSpaceOnUse">
<stop offset="0.0301753" stop-color="#EC2227"/>
<stop offset="1" stop-color="#9D1F60"/>
</linearGradient>
<linearGradient id="paint7_linear" x1="281.045" y1="-116.263" x2="944.814" y2="506.755" gradientUnits="userSpaceOnUse">
<stop offset="0.0301753" stop-color="#EC2227"/>
<stop offset="1" stop-color="#9D1F60"/>
</linearGradient>
<linearGradient id="paint8_linear" x1="641.09" y1="768.324" x2="168.73" y2="457.596" gradientUnits="userSpaceOnUse">
<stop offset="0.0301753" stop-color="#EC2227"/>
<stop offset="1" stop-color="#9D1F60"/>
</linearGradient>
<linearGradient id="paint9_linear" x1="-57.481" y1="240.521" x2="606.524" y2="863.762" gradientUnits="userSpaceOnUse">
<stop offset="0.0301753" stop-color="#EC2227"/>
<stop offset="1" stop-color="#9D1F60"/>
</linearGradient>
</defs>
</svg>
